<?xml version="1.0" encoding="utf-8"?>
<!-- Generator: Adobe Illustrator 28.5.0, SVG Export Plug-In . SVG Version: 9.03 Build 54727)  -->
<svg version="1.1" id="Layer_11" xmlns="http://www.w3.org/2000/svg" xmlns:xlink="http://www.w3.org/1999/xlink" x="0px" y="0px"
	 viewBox="0 0 854.5 179.7" style="enable-background:new 0 0 854.5 179.7;" xml:space="preserve">
<style type="text/css">
	.st0{fill:#13C2CC;}
	.st1{fill:#126FF0;}
</style>
<g>
	<path class="st0" d="M93.7,48.2C88.3,40,78.5,35.6,61.6,35.6c-32.9,0-49.2,16.9-49.2,48.7c0,30.4,15,48.7,49.2,48.7
		c16.7,0,26.5-4.4,32.1-12.8v9.4c0,13.8-9,23.7-28.5,23.7c-9,0-17.2-3.6-22.7-13.8H16.7c5.1,25.9,25.8,36.9,48.5,36.9
		c30,0,52.4-18.3,52.4-40.5V37.3H93.7V48.2z M65.1,109.8c-18.6,0-28.7-9.6-28.7-25.6c0-16.7,10.6-25.6,28.7-25.6
		c18.6,0,28.7,9.6,28.7,25.6C93.7,101,83.1,109.8,65.1,109.8z"/>
	<rect x="125" y="37.2" class="st0" width="25.8" height="101.2"/>
	<rect x="125" y="9.6" class="st0" width="25.8" height="16.6"/>
	<path class="st0" d="M188.3,67.2c0-5.7,7.9-10.1,18.8-10.1c14.9,0,21.5,4.6,23.7,14.7h26.5c-3.3-22.1-22.6-36.3-50.8-36.3
		c-24.8,0-44.7,10.9-44.7,30.6c0,42.9,70.7,25.2,70.7,43.3c0,7-9.2,9-22.8,9c-14.5,0-23.9-4.4-25.6-14.4H157
		c2.6,24.3,23.6,36.3,56,36.3c24.3,0,47.5-10.5,47.5-30.9C260.4,68.2,188.3,84.9,188.3,67.2z"/>
	<path class="st1" d="M284.9,110.9c-8.1,0-14.7,6.8-14.7,14.7c0,8.1,6.6,14.7,14.7,14.7c7.9,0,14.7-6.6,14.7-14.7
		C299.6,117.7,292.8,110.9,284.9,110.9z"/>
	<path class="st0" d="M366.4,115.5c-20.1,0-30.9-10.3-30.9-27.6c0-18,11.4-27.6,30.9-27.6c15.3,0,25.2,5.9,29.1,16.4h26.7
		c-4-26-23.4-41.2-55.8-41.2c-35.5,0-56.7,18.2-56.7,52.5c0,32.8,19.9,52.5,56.7,52.5c31.5,0,51.7-14.4,56-41.6h-26.7
		C391.8,109.8,381.5,115.5,366.4,115.5z"/>
	<rect x="428.4" y="9.6" class="st0" width="25.8" height="128.8"/>
	<path class="st1" d="M569.3,62.1c-2.5-0.4-3.7-1.2-4.7-3.4c-7.8-15.8-24.8-25.3-41.5-23.2c-18.9,2.4-32.9,15.2-36.6,33.6
		c-0.6,2.9-1.4,3.9-3.9,4.8c-15.9,6.1-25,22-22.7,39.5c2.1,15.9,15.7,28.7,32.5,30.5c7.7,0.8,15.2,0.8,22.5,0.7
		c4.5,0,8.7-0.1,12.6,0.1l0.1,0c3.2,0,6.3,0.1,9.1,0.1c4.6,0.1,8.8,0.1,12.8,0.1c1.5,0,3,0,4.4,0c1.2,0,2.3,0,3.5,0
		c5,0,10.1,0,15.2-1.2c19.4-4.8,33-22.2,32.4-41.4C604.4,82.1,589.7,65.6,569.3,62.1z M571.5,138.9c-4.5,1.1-9.1,1.1-14,1.1
		c-1.2,0-2.4,0-3.6,0c-5.4,0.1-10.9,0-17.1-0.1c-2.9,0-5.9-0.1-9.1-0.1c-4-0.2-8.3-0.2-12.8-0.1c-7.1,0-14.5,0.1-21.9-0.7
		c-14.5-1.5-26.3-12.6-28.1-26.2c-2-15.2,5.9-29,19.5-34.2c4.7-1.8,6.2-4.7,7-8.5c3.2-16.2,15.6-27.5,32.3-29.6
		c14.6-1.8,29.6,6.6,36.4,20.5c1.8,3.6,4.3,5.4,8.4,6.1c18.3,3.1,31,17.4,31.6,35.5C600.6,119.4,588.6,134.7,571.5,138.9z"/>
	<path class="st1" d="M553.1,104.3c-4.6,3-9.3,6-13.9,9c-1,0.6-2,2-3.2,1.3c-1.2-0.7-0.6-2.3-0.6-3.5c0.1-14.2,0.3-28.4,0.4-42.6
		c0-2.2,0.2-4.7-3.1-4.7c-3.2,0-2.7,2.5-2.7,4.5c-0.1,10.9-0.2,21.8-0.3,32.7c0,4.5-0.1,9-0.1,14.5c-2.4-1.6-3.9-2.6-5.4-3.5
		c-4.4-2.9-8.7-5.9-13.1-8.8c-1.4-0.9-2.9-1.1-4,0.5c-1,1.5-0.6,2.9,0.7,4.1c0.4,0.4,0.9,0.7,1.3,1c6.9,4.6,13.8,9.2,20.6,13.8
		c2,1.4,3.8,1.3,5.7,0c7.1-4.6,14.2-9.1,21.3-13.6c1.7-1.1,3.4-2.5,2-4.7C556.9,101.9,554.9,103.1,553.1,104.3z"/>
	<path class="st0" d="M692.8,92.5c0,14.9-11.4,23-27.8,23c-16.9,0-27.8-8.8-27.8-23V37.2h-25.8v55.2c0,29.8,20.1,47.9,48,47.9
		c16.9,0,27.2-4.6,33.3-13.3v11.4h25.8V37.2h-25.8V92.5z"/>
	<path class="st0" d="M816.3,9.6V49c-5.9-8.8-16.4-13.6-34.6-13.6c-35.5,0-53,18.2-53,52.5c0,32.8,16.2,52.5,53,52.5
		c18,0,28.5-4.8,34.6-13.8v12H842V9.6H816.3z M785.3,115.5c-20.1,0-30.9-10.3-30.9-27.6c0-18,11.4-27.6,30.9-27.6
		c20.1,0,30.9,10.3,30.9,27.6C816.3,105.9,804.9,115.5,785.3,115.5z"/>
</g>
</svg>
