<?xml version="1.0" encoding="UTF-8"?>
<svg id="Layer_11" data-name="Layer 11" xmlns="http://www.w3.org/2000/svg" version="1.1" viewBox="0 0 829.7 179.7">
  <defs>
    <style>
      .cls-1 {
        fill: #126ff0;
      }

      .cls-1, .cls-2 {
        stroke-width: 0px;
      }

      .cls-2 {
        fill: #13c2cc;
      }
    </style>
  </defs>
  <path class="cls-2" d="M81.3,48.2c-5.4-8.2-15.2-12.6-32.1-12.6C16.3,35.6,0,52.5,0,84.3s15,48.7,49.2,48.7,26.5-4.4,32.1-12.8v9.4c0,13.8-9,23.7-28.5,23.7s-17.2-3.6-22.7-13.8H4.3c5.1,25.9,25.8,36.9,48.5,36.9s52.4-18.3,52.4-40.5V37.3h-23.9v10.9ZM52.7,109.8c-18.6,0-28.7-9.6-28.7-25.6s10.6-25.6,28.7-25.6,28.7,9.6,28.7,25.6c-.1,16.8-10.7,25.6-28.7,25.6Z"/>
  <rect class="cls-2" x="112.6" y="37.2" width="25.8" height="101.2"/>
  <rect class="cls-2" x="112.6" y="9.6" width="25.8" height="16.6"/>
  <path class="cls-2" d="M175.9,67.2c0-5.7,7.9-10.1,18.8-10.1s21.5,4.6,23.7,14.7h26.5c-3.3-22.1-22.6-36.3-50.8-36.3s-44.7,10.9-44.7,30.6c0,42.9,70.7,25.2,70.7,43.3s-9.2,9-22.8,9-23.9-4.4-25.6-14.4h-27.1c2.6,24.3,23.6,36.3,56,36.3s47.5-10.5,47.5-30.9c-.1-41.2-72.2-24.5-72.2-42.2Z"/>
  <path class="cls-1" d="M272.5,110.9c-8.1,0-14.7,6.8-14.7,14.7s6.6,14.7,14.7,14.7,14.7-6.6,14.7-14.7-6.8-14.7-14.7-14.7Z"/>
  <path class="cls-2" d="M354,115.5c-20.1,0-30.9-10.3-30.9-27.6s11.4-27.6,30.9-27.6,25.2,5.9,29.1,16.4h26.7c-4-26-23.4-41.2-55.8-41.2s-56.7,18.2-56.7,52.5,19.9,52.5,56.7,52.5,51.7-14.4,56-41.6h-26.7c-3.9,10.9-14.2,16.6-29.3,16.6Z"/>
  <rect class="cls-2" x="416" y="9.6" width="25.8" height="128.8"/>
  <path class="cls-1" d="M556.9,62.1c-2.5-.4-3.7-1.2-4.7-3.4-7.8-15.8-24.8-25.3-41.5-23.2-18.9,2.4-32.9,15.2-36.6,33.6-.6,2.9-1.4,3.9-3.9,4.8-15.9,6.1-25,22-22.7,39.5,2.1,15.9,15.7,28.7,32.5,30.5,7.7.8,15.2.8,22.5.7,4.5,0,8.7-.1,12.6.1h0c3.2,0,6.3.1,9.1.1,4.6.1,8.8.1,12.8.1h7.9c5,0,10.1,0,15.2-1.2,19.4-4.8,33-22.2,32.4-41.4-.6-20.2-15.3-36.7-35.7-40.2ZM559.1,138.9c-4.5,1.1-9.1,1.1-14,1.1h-3.6c-5.4.1-10.9,0-17.1-.1-2.9,0-5.9-.1-9.1-.1-4-.2-8.3-.2-12.8-.1-7.1,0-14.5.1-21.9-.7-14.5-1.5-26.3-12.6-28.1-26.2-2-15.2,5.9-29,19.5-34.2,4.7-1.8,6.2-4.7,7-8.5,3.2-16.2,15.6-27.5,32.3-29.6,14.6-1.8,29.6,6.6,36.4,20.5,1.8,3.6,4.3,5.4,8.4,6.1,18.3,3.1,31,17.4,31.6,35.5.5,16.8-11.5,32.1-28.6,36.3Z"/>
  <path class="cls-1" d="M540.7,104.3c-4.6,3-9.3,6-13.9,9-1,.6-2,2-3.2,1.3s-.6-2.3-.6-3.5c0-14.2.3-28.4.4-42.6,0-2.2.2-4.7-3.1-4.7s-2.7,2.5-2.7,4.5c0,10.9-.2,21.8-.3,32.7,0,4.5,0,9,0,14.5-2.4-1.6-3.9-2.6-5.4-3.5-4.4-2.9-8.7-5.9-13.1-8.8-1.4-.9-2.9-1.1-4,.5-1,1.5-.6,2.9.7,4.1.4.4.9.7,1.3,1,6.9,4.6,13.8,9.2,20.6,13.8,2,1.4,3.8,1.3,5.7,0,7.1-4.6,14.2-9.1,21.3-13.6,1.7-1.1,3.4-2.5,2-4.7-1.8-2.4-3.8-1.2-5.6,0Z"/>
  <path class="cls-2" d="M680.4,92.5c0,14.9-11.4,23-27.8,23s-27.8-8.8-27.8-23v-55.3h-25.8v55.2c0,29.8,20.1,47.9,48,47.9s27.2-4.6,33.3-13.3v11.4h25.8V37.2h-25.8v55.3h0Z"/>
  <path class="cls-2" d="M803.9,9.6v39.4c-5.9-8.8-16.4-13.6-34.6-13.6-35.5,0-53,18.2-53,52.5s16.2,52.5,53,52.5,28.5-4.8,34.6-13.8v12h25.7V9.6h-25.7ZM772.9,115.5c-20.1,0-30.9-10.3-30.9-27.6s11.4-27.6,30.9-27.6,30.9,10.3,30.9,27.6c0,18-11.3,27.6-30.9,27.6Z"/>
</svg>